<?xml version="1.0" encoding="UTF-8"?>
<svg width="42px" height="31px" viewBox="0 0 42 31" version="1.1" xmlns="http://www.w3.org/2000/svg" xmlns:xlink="http://www.w3.org/1999/xlink">
    <!-- Generator: Sketch 54.1 (76490) - https://sketchapp.com -->
    <title>horse_unknown_icn</title>
    <desc>Created with Sketch.</desc>
    <g id="GENERAL" stroke="none" stroke-width="1" fill="none" fill-rule="evenodd">
        <g id="Results_Setted-Settled-Result-rule_4" transform="translate(-16.000000, -737.000000)">
            <g id="Group" transform="translate(0.000000, 173.000000)">
                <g id="Group-4" transform="translate(4.000000, 517.000000)">
                    <g id="horse_unknown_icn" transform="translate(12.000000, 47.000000)">
                        <polygon id="Combined-Shape" fill="#D8D8D8" points="17.2810454 3.21528134 18.4807894 1.08895706 21.3503472 1.08895706 21.3503472 1.88903481 28.7161458 5.85005619 25.7731597 15.3601834 25.7731597 29.6719647 17.2666667 29.6719647 17.2666667 29.6566897 8.78031252 29.6566897 8.78031252 15.3449085 5.83732639 5.8347812 13.203125 1.87375983 13.203125 1.07368207 16.0726828 1.07368207"></polygon>
                        <path d="M18.6883431,1.44478528 L17.2810454,3.93896006 L15.8651291,1.42951029 L13.5586806,1.42951029 L13.5586806,2.08650272 L6.26360777,6.00949068 L9.13586808,15.2910706 L9.13586808,29.3008615 L17.6222222,29.3008615 L25.4176041,29.3161365 L25.4176041,15.3063456 L28.2898645,6.02476567 L20.9947917,2.10177771 L20.9947917,1.44478528 L18.6883431,1.44478528 Z M17.2810454,2.49160263 L18.2732357,0.733128834 L21.7059028,0.733128834 L21.7059028,1.67629191 L29.1424272,5.67534671 L26.1287153,15.4140213 L26.1287153,30.0277929 L16.9111111,30.0277929 L8.42475697,30.0125179 L8.42475697,15.3987463 L5.41104501,5.66007172 L12.8475694,1.66101693 L12.8475694,0.717853848 L16.2802365,0.717853848 L17.2810454,2.49160263 Z" id="Combined-Shape" fill="#B9B9B9" fill-rule="nonzero"></path>
                        <path d="M1.08211806,28.7443503 L5.45820091,7.62933881 C5.57027495,7.08856628 6.09951165,6.7410375 6.64028418,6.85311153 C6.88384956,6.90358998 7.09985802,7.04303407 7.24613538,7.24421832 C8.8280069,9.41986339 9.26199187,12.5313254 8.54809028,16.5786043 C7.6552662,21.6402376 6.75271991,26.0938818 5.84045139,29.939537 L1.08211806,28.7443503 Z" id="Path-5" fill="#D8D8D8"></path>
                        <path d="M1.49954316,28.4823336 L5.57729839,29.5065744 C6.45969712,25.7487324 7.33329219,21.4186903 8.19794832,16.5167478 C9.0178121,11.8687439 8.29833412,8.52635481 6.06632218,6.44701843 L1.49954316,28.4823336 Z M5.46276865,5.8550146 C5.51261744,5.61448739 5.74786429,5.45994297 5.98820719,5.50982999 C6.05863654,5.52444873 6.12446824,5.55595596 6.18004945,5.60164623 C8.90287577,7.83993257 9.79862738,11.5359053 8.89823224,16.6404608 C8.00427241,21.7085329 7.10037475,26.1688455 6.18639197,30.0217271 L6.10320529,30.3723994 L0.664692949,29.006367 L5.46276865,5.8550146 Z" id="Path-5" fill="#B9B9B9" fill-rule="nonzero"></path>
                        <path d="M25.7111107,28.7632884 L30.0871936,7.64827693 C30.1992676,7.10750441 30.7285043,6.75997562 31.2692768,6.87204966 C31.5128422,6.9225281 31.7288507,7.0619722 31.875128,7.26315644 C33.4569996,9.43880151 33.8909845,12.5502635 33.1770829,16.5975424 C32.2842589,21.6591757 31.3817126,26.1128199 30.469444,29.9584751 L25.7111107,28.7632884 Z" id="Path-5" fill="#D8D8D8" transform="translate(29.610595, 18.404759) scale(-1, 1) translate(-29.610595, -18.404759) "></path>
                        <path d="M30.2062905,29.5255125 C31.0886893,25.7676705 31.9622843,21.4376284 32.8269405,16.5356859 C33.6468043,11.887682 32.9273263,8.54529294 30.6953143,6.46595655 L26.1285353,28.5012718 L30.2062905,29.5255125 Z M30.0917608,5.87395273 C30.1416096,5.63342551 30.3768564,5.47888109 30.6171993,5.52876811 C30.6876287,5.54338685 30.7534604,5.57489409 30.8090416,5.62058435 C33.5318679,7.85887069 34.4276195,11.5548434 33.5272244,16.6593989 C32.6332646,21.727471 31.7293669,26.1877836 30.8153841,30.0406653 L30.7321974,30.3913375 L25.2936851,29.0253051 L30.0917608,5.87395273 Z" id="Path-5" fill="#B9B9B9" fill-rule="nonzero" transform="translate(29.579473, 17.955374) scale(-1, 1) translate(-29.579473, -17.955374) "></path>
                        <path d="M32.5204892,12.3270301 C34.0064845,14.9978267 35.8070054,16.0822804 37.9220517,15.5803912 C41.0946211,14.8275574 41.4211836,10.1726015 40.1055586,7.93442805 C39.2284753,6.44231245 36.7001188,7.90651314 32.5204892,12.3270301 Z" id="Path-7" fill="#D8D8D8" transform="translate(36.676231, 11.534542) rotate(2.000000) translate(-36.676231, -11.534542) "></path>
                        <path d="M32.2098437,12.5001343 L32.0829527,12.2720717 L32.2622262,12.082466 C34.373648,9.84935519 36.0729246,8.35863013 37.3733969,7.60551145 C38.7846149,6.78825869 39.8494714,6.79698748 40.4120204,7.75400973 C41.1231944,8.96387626 41.3727883,10.7804337 41.0452439,12.385607 C40.6723412,14.2130651 39.6214036,15.5428382 38.0040839,15.9266196 C35.7134659,16.470171 33.766151,15.2973033 32.2098437,12.5001343 Z M37.8400194,15.2341628 C39.1568838,14.9216779 40.0264848,13.8213537 40.3485122,12.2432169 C40.6422177,10.8038752 40.4172348,9.16643785 39.7990968,8.11484635 C39.1422403,6.99738601 36.8462281,8.30422028 32.9601984,12.3804742 C34.3470802,14.7572494 35.9591849,15.6804748 37.8400194,15.2341628 Z" id="Path-7" fill="#B9B9B9" fill-rule="nonzero"></path>
                        <ellipse id="Oval-4" fill="#D8D8D8" cx="35.9333333" cy="9.09509202" rx="4.71111111" ry="4.71472393"></ellipse>
                        <path d="M35.9333333,14.1656442 C33.1350906,14.1656442 30.8666667,11.8954806 30.8666667,9.09509202 C30.8666667,6.2947034 33.1350906,4.02453988 35.9333333,4.02453988 C38.7315761,4.02453988 41,6.2947034 41,9.09509202 C41,11.8954806 38.7315761,14.1656442 35.9333333,14.1656442 Z M35.9333333,13.4539877 C38.3388402,13.4539877 40.2888889,11.5024436 40.2888889,9.09509202 C40.2888889,6.6877404 38.3388402,4.73619632 35.9333333,4.73619632 C33.5278264,4.73619632 31.5777778,6.6877404 31.5777778,9.09509202 C31.5777778,11.5024436 33.5278264,13.4539877 35.9333333,13.4539877 Z" id="Oval-4" fill="#B9B9B9" fill-rule="nonzero"></path>
                    </g>
                </g>
            </g>
        </g>
    </g>
</svg>