<?xml version="1.0" encoding="UTF-8"?>
<svg width="42px" height="31px" viewBox="0 0 42 31" version="1.1" xmlns="http://www.w3.org/2000/svg" xmlns:xlink="http://www.w3.org/1999/xlink">
    <!-- Generator: Sketch 56.3 (81716) - https://sketch.com -->
    <title>International-Silk</title>
    <desc>Created with Sketch.</desc>
    <defs>
        <rect id="path-1" x="0" y="0" width="40" height="29"/>
    </defs>
    <g id="Result-Page-Map" stroke="none" stroke-width="1" fill="none" fill-rule="evenodd">
        <g id="06-Result-Yesterday-result-page" transform="translate(-99.000000, -258.000000)">
            <g id="International-Silk" transform="translate(99.000000, 258.000000)">
                <g>
                    <mask id="mask-2" fill="white">
                        <use xlink:href="#path-1"/>
                    </mask>
                    <g id="Mask"/>
                    <g id="Group-7" mask="url(#mask-2)">
                        <g id="Group-6" transform="translate(30.500000, 0.000000)" fill-rule="nonzero">
                            <path d="M1.78887284,6.74915 C2.91977597,8.747283 4.29106045,9.55804303 5.90272603,9.18143025 C8.32022429,8.616511 8.57122307,5.13257161 7.56991913,3.45813504 C6.90238317,2.34184399 4.97536769,3.43884899 1.78887284,6.74915 Z" id="Path-7" fill="#D8D8D8" transform="translate(4.955410, 6.153450) rotate(2.000000) translate(-4.955410, -6.153450) "/>
                            <path d="M1.55247342,6.87672783 L1.45579455,6.70604872 L1.5923839,6.56415033 C3.20108612,4.89291908 4.495773,3.77727975 5.48660894,3.21365548 C6.56182264,2.6020341 7.37314179,2.60856661 7.80175057,3.32478967 C8.34359733,4.23023812 8.53376412,5.58972615 8.28420654,6.79101712 C8.00009016,8.15866311 7.19937588,9.15384801 5.96713236,9.44106512 C4.22189974,9.84785189 2.73823127,8.97009291 1.55247342,6.87672783 Z M5.84213084,8.92283939 C6.84545606,8.68897972 7.50800914,7.86551137 7.75336337,6.68445416 C7.97713896,5.60726951 7.80572345,4.38183259 7.33476115,3.59483513 C6.8342991,2.75854228 5.08495657,3.73656012 2.12417219,6.78717576 C3.18084404,8.56592357 4.40911421,9.25685353 5.84213084,8.92283939 Z" id="Path-7" fill="#B9B9B9"/>
                            <ellipse id="Oval-4" fill="#D8D8D8" cx="4.38941773" cy="4.32843829" rx="3.58941778" ry="3.52843834"/>
                            <path d="M4.38941773,8.12317392 C2.25742338,8.12317392 0.52910052,6.42421282 0.52910052,4.32843829 C0.52910052,2.23266371 2.25742338,0.533702728 4.38941773,0.533702728 C6.52141208,0.533702728 8.24973494,2.23266371 8.24973494,4.32843829 C8.24973494,6.42421282 6.52141208,8.12317392 4.38941773,8.12317392 Z M4.38941773,7.59057939 C6.22218474,7.59057939 7.70793609,6.13006907 7.70793609,4.32843829 C7.70793609,2.52680751 6.22218474,1.06629719 4.38941773,1.06629719 C2.55665064,1.06629719 1.07089945,2.52680751 1.07089945,4.32843829 C1.07089945,6.13006907 2.55665064,7.59057939 4.38941773,7.59057939 Z" id="Oval-4" fill="#B9B9B9"/>
                        </g>
                        <g id="Group-5" transform="translate(-0.000000, 0.000000)" fill="#D8D8D8" stroke="#B9B9B9" stroke-width="0.8">
                            <path d="M8,28 L24,28 L27,3 L21.5254655,1.50694514 C17.9078845,0.520332137 14.0921155,0.520332137 10.4745345,1.50694514 L5,3 L8,28 Z" id="Path-18"/>
                            <path d="M26.5569465,19.8735886 L26.0617933,25.3202735 C26.0245244,25.7302311 26.2422837,26.1211418 26.6104729,26.3052365 L28.8289709,27.4144854 C29.3229494,27.6614747 29.9236224,27.4612503 30.1706116,26.9672718 C30.2103609,26.8877734 30.2393339,26.8033303 30.2567651,26.7161744 L31.6256263,19.8718684 C31.8729756,18.6351222 31.8841359,17.3627473 31.6585187,16.1218527 L30,7 L27.3805013,3.5073351 C27.2810983,3.37476857 27.0930469,3.34790409 26.9604909,3.44732113 C26.9045702,3.48926161 26.8650493,3.54941193 26.848752,3.61738632 C26.2829173,5.97742558 26,7.77163014 26,9 C26,9.66265485 26.0823334,10.4899765 26.2470002,11.4819649 C26.7072419,14.2545612 26.8114005,17.0745949 26.5569465,19.8735886 Z" id="Path-20"/>
                            <path d="M0.556946493,19.8735886 L0.0617933158,25.3202735 C0.0245244474,25.7302311 0.242283668,26.1211418 0.610472927,26.3052365 L2.82897085,27.4144854 C3.32294935,27.6614747 3.92362239,27.4612503 4.17061164,26.9672718 C4.21036088,26.8877734 4.23933393,26.8033303 4.25676513,26.7161744 L5.62562632,19.8718684 C5.87297556,18.6351222 5.88413588,17.3627473 5.65851867,16.1218527 L4,7 L1.38050133,3.5073351 C1.28109825,3.37476857 1.0930469,3.34790409 0.960490851,3.44732113 C0.904570221,3.48926161 0.865049345,3.54941193 0.848752044,3.61738632 C0.282917348,5.97742558 0,7.77163014 0,9 C0,9.66265485 0.0823333969,10.4899765 0.247000191,11.4819649 C0.707241935,14.2545612 0.811400462,17.0745949 0.556946493,19.8735886 Z" id="Path-20" transform="translate(3.000000, 15.500000) scale(-1, 1) translate(-3.000000, -15.500000) "/>
                        </g>
                    </g>
                </g>
            </g>
        </g>
    </g>
</svg>
